<svg xmlns="http://www.w3.org/2000/svg" xmlns:xlink="http://www.w3.org/1999/xlink" width="394" height="356" version="1.1" viewBox="0 0 394 356"><title>sketch-symbol</title><desc>Created with Sketch.</desc><g id="Page-1" fill="none" fill-rule="evenodd" stroke="none" stroke-width="1"><g id="sketch-symbol" fill-rule="nonzero"><polygon id="Path" fill="#FDB300" points="85.79 11.715 196.603 0 307.415 11.715 393.206 126.881 196.603 355.823 0 126.881"/><g id="Group" transform="translate(0.000000, 126.881084)"><polygon id="Path" fill="#EA6C00" points="79.634 0 196.603 228.942 0 0"/><polygon id="Path" fill="#EA6C00" points="276.236 0 393.205 228.942 196.602 0" transform="translate(294.903968, 114.471000) scale(-1, 1) translate(-294.903968, -114.471000)"/><polygon id="Path" fill="#FDAD00" points="79.634 0 313.572 0 196.603 228.942"/></g><g id="Group"><polygon id="Path" fill="#FDD231" points="196.603 0 85.79 11.715 79.634 126.881"/><polygon id="Path" fill="#FDD231" points="313.571 0 202.758 11.715 196.602 126.881" transform="translate(255.086896, 63.440500) scale(-1, 1) translate(-255.086896, -63.440500)"/><polygon id="Path" fill="#FDAD00" points="307.415 126.881 393.206 11.715 387.049 126.881" transform="translate(350.310468, 69.298000) scale(-1, 1) translate(-350.310468, -69.298000)"/><polygon id="Path" fill="#FDAD00" points="0 126.881 85.79 11.715 79.634 126.881"/><polygon id="Path" fill="#FEEEB7" points="196.603 0 79.634 126.881 313.572 126.881"/></g></g></g></svg>